<mxfile host="app.diagrams.net" modified="2022-12-15T13:04:53.982Z" agent="5.0 (Macintosh; Intel Mac OS X 10_15_7) AppleWebKit/537.36 (KHTML, like Gecko) Chrome/108.0.0.0 Safari/537.36" etag="4ykONjntk1vyBmlc0yVN" version="20.7.2" type="github">
  <diagram id="kgpKYQtTHZ0yAKxKKP6v" name="Page-1">
    <mxGraphModel dx="1306" dy="828" grid="1" gridSize="10" guides="1" tooltips="1" connect="1" arrows="1" fold="1" page="1" pageScale="1" pageWidth="3300" pageHeight="4681" math="0" shadow="0">
      <root>
        <mxCell id="0" />
        <mxCell id="1" parent="0" />
        <mxCell id="3nuBFxr9cyL0pnOWT2aG-1" value="行业渠道店开店" style="shape=umlLifeline;perimeter=lifelinePerimeter;container=1;collapsible=0;recursiveResize=0;rounded=0;shadow=0;strokeWidth=1;" parent="1" vertex="1">
          <mxGeometry x="170" y="80" width="100" height="570" as="geometry" />
        </mxCell>
        <mxCell id="3nuBFxr9cyL0pnOWT2aG-2" value="" style="points=[];perimeter=orthogonalPerimeter;rounded=0;shadow=0;strokeWidth=1;" parent="3nuBFxr9cyL0pnOWT2aG-1" vertex="1">
          <mxGeometry x="45" y="70" width="10" height="40" as="geometry" />
        </mxCell>
        <mxCell id="1UaLdn4-Rcgwa1a99ima-10" value="" style="points=[];perimeter=orthogonalPerimeter;rounded=0;shadow=0;strokeWidth=1;" vertex="1" parent="3nuBFxr9cyL0pnOWT2aG-1">
          <mxGeometry x="45" y="155" width="10" height="245" as="geometry" />
        </mxCell>
        <mxCell id="3nuBFxr9cyL0pnOWT2aG-5" value="组网" style="shape=umlLifeline;perimeter=lifelinePerimeter;container=1;collapsible=0;recursiveResize=0;rounded=0;shadow=0;strokeWidth=1;" parent="1" vertex="1">
          <mxGeometry x="350" y="80" width="100" height="570" as="geometry" />
        </mxCell>
        <mxCell id="3nuBFxr9cyL0pnOWT2aG-6" value="" style="points=[];perimeter=orthogonalPerimeter;rounded=0;shadow=0;strokeWidth=1;" parent="3nuBFxr9cyL0pnOWT2aG-5" vertex="1">
          <mxGeometry x="45" y="160" width="10" height="50" as="geometry" />
        </mxCell>
        <mxCell id="1UaLdn4-Rcgwa1a99ima-11" value="" style="points=[];perimeter=orthogonalPerimeter;rounded=0;shadow=0;strokeWidth=1;" vertex="1" parent="3nuBFxr9cyL0pnOWT2aG-5">
          <mxGeometry x="45" y="230" width="10" height="50" as="geometry" />
        </mxCell>
        <mxCell id="1UaLdn4-Rcgwa1a99ima-14" value="" style="points=[];perimeter=orthogonalPerimeter;rounded=0;shadow=0;strokeWidth=1;" vertex="1" parent="3nuBFxr9cyL0pnOWT2aG-5">
          <mxGeometry x="45" y="310" width="10" height="50" as="geometry" />
        </mxCell>
        <mxCell id="1UaLdn4-Rcgwa1a99ima-15" value="绑定店仓" style="html=1;verticalAlign=bottom;endArrow=block;rounded=0;exitX=1;exitY=0.083;exitDx=0;exitDy=0;exitPerimeter=0;" edge="1" parent="3nuBFxr9cyL0pnOWT2aG-5">
          <mxGeometry width="80" relative="1" as="geometry">
            <mxPoint x="-130" y="320" as="sourcePoint" />
            <mxPoint x="44.5" y="320" as="targetPoint" />
          </mxGeometry>
        </mxCell>
        <mxCell id="1UaLdn4-Rcgwa1a99ima-16" value="" style="html=1;verticalAlign=bottom;endArrow=open;dashed=1;endSize=8;rounded=0;exitX=-0.2;exitY=0.669;exitDx=0;exitDy=0;exitPerimeter=0;" edge="1" parent="3nuBFxr9cyL0pnOWT2aG-5">
          <mxGeometry relative="1" as="geometry">
            <mxPoint x="43.5" y="347" as="sourcePoint" />
            <mxPoint x="-130" y="347" as="targetPoint" />
          </mxGeometry>
        </mxCell>
        <mxCell id="1UaLdn4-Rcgwa1a99ima-1" value="小二" style="shape=umlActor;verticalLabelPosition=bottom;verticalAlign=top;html=1;" vertex="1" parent="1">
          <mxGeometry x="60" y="130" width="30" height="60" as="geometry" />
        </mxCell>
        <mxCell id="1UaLdn4-Rcgwa1a99ima-2" value="小二" style="shape=umlActor;verticalLabelPosition=bottom;verticalAlign=top;html=1;" vertex="1" parent="1">
          <mxGeometry x="60" y="217" width="30" height="60" as="geometry" />
        </mxCell>
        <mxCell id="1UaLdn4-Rcgwa1a99ima-4" value="开经营店" style="html=1;verticalAlign=bottom;endArrow=block;rounded=0;exitX=1;exitY=0.083;exitDx=0;exitDy=0;exitPerimeter=0;" edge="1" parent="1">
          <mxGeometry width="80" relative="1" as="geometry">
            <mxPoint x="225" y="252.84000000000003" as="sourcePoint" />
            <mxPoint x="399.5" y="252.84000000000003" as="targetPoint" />
          </mxGeometry>
        </mxCell>
        <mxCell id="1UaLdn4-Rcgwa1a99ima-7" value="" style="html=1;verticalAlign=bottom;endArrow=open;dashed=1;endSize=8;rounded=0;exitX=-0.2;exitY=0.669;exitDx=0;exitDy=0;exitPerimeter=0;" edge="1" parent="1" source="3nuBFxr9cyL0pnOWT2aG-6" target="3nuBFxr9cyL0pnOWT2aG-1">
          <mxGeometry relative="1" as="geometry">
            <mxPoint x="300" y="380" as="sourcePoint" />
            <mxPoint x="220" y="380" as="targetPoint" />
          </mxGeometry>
        </mxCell>
        <mxCell id="1UaLdn4-Rcgwa1a99ima-8" value="开店" style="html=1;verticalAlign=bottom;endArrow=block;rounded=0;exitX=1;exitY=0.083;exitDx=0;exitDy=0;exitPerimeter=0;entryX=0;entryY=0.018;entryDx=0;entryDy=0;entryPerimeter=0;" edge="1" parent="1" target="1UaLdn4-Rcgwa1a99ima-10">
          <mxGeometry width="80" relative="1" as="geometry">
            <mxPoint x="80" y="240.00000000000014" as="sourcePoint" />
            <mxPoint x="210" y="240" as="targetPoint" />
          </mxGeometry>
        </mxCell>
        <mxCell id="1UaLdn4-Rcgwa1a99ima-9" value="绑定商仓" style="html=1;verticalAlign=bottom;endArrow=block;rounded=0;exitX=1;exitY=0.083;exitDx=0;exitDy=0;exitPerimeter=0;entryX=0;entryY=0.188;entryDx=0;entryDy=0;entryPerimeter=0;" edge="1" parent="1">
          <mxGeometry width="80" relative="1" as="geometry">
            <mxPoint x="80" y="159.50000000000023" as="sourcePoint" />
            <mxPoint x="215" y="159.74" as="targetPoint" />
          </mxGeometry>
        </mxCell>
        <mxCell id="1UaLdn4-Rcgwa1a99ima-12" value="开渠道店" style="html=1;verticalAlign=bottom;endArrow=block;rounded=0;exitX=1;exitY=0.083;exitDx=0;exitDy=0;exitPerimeter=0;" edge="1" parent="1">
          <mxGeometry width="80" relative="1" as="geometry">
            <mxPoint x="220" y="320.0000000000001" as="sourcePoint" />
            <mxPoint x="394.5" y="320.0000000000001" as="targetPoint" />
          </mxGeometry>
        </mxCell>
        <mxCell id="1UaLdn4-Rcgwa1a99ima-13" value="" style="html=1;verticalAlign=bottom;endArrow=open;dashed=1;endSize=8;rounded=0;exitX=-0.2;exitY=0.669;exitDx=0;exitDy=0;exitPerimeter=0;" edge="1" parent="1">
          <mxGeometry relative="1" as="geometry">
            <mxPoint x="393.5" y="347.00000000000006" as="sourcePoint" />
            <mxPoint x="220" y="347.00000000000006" as="targetPoint" />
          </mxGeometry>
        </mxCell>
      </root>
    </mxGraphModel>
  </diagram>
</mxfile>
